Coordinates
version=1
nRows=16
nColumns=40
inDegrees=yes

Units are S.I. units (second, meters, Newtons, ...)
Angles are in degrees.

endheader
time	pelvis_tilt	pelvis_list	pelvis_rotation	pelvis_tx	pelvis_ty	pelvis_tz	hip_flexion_r	hip_adduction_r	hip_rotation_r	knee_angle_r	knee_angle_r_beta	ankle_angle_r	subtalar_angle_r	mtp_angle_r	hip_flexion_l	hip_adduction_l	hip_rotation_l	knee_angle_l	knee_angle_l_beta	ankle_angle_l	subtalar_angle_l	mtp_angle_l	lumbar_extension	lumbar_bending	lumbar_rotation	arm_flex_r	arm_add_r	arm_rot_r	elbow_flex_r	pro_sup_r	wrist_flex_r	wrist_dev_r	arm_flex_l	arm_add_l	arm_rot_l	elbow_flex_l	pro_sup_l	wrist_flex_l	wrist_dev_l
     19.11978571	     -4.09794009	     -2.54621291	     -8.75590038	      1.01876778	      0.93082538	      0.43273425	     23.40857347	     -4.10593757	     -5.09878471	     21.07719908	     21.07719908	      7.72887341	      5.47927342	     -0.78661866	      7.39372325	     -1.82145109	    -11.26684112	     17.02136668	     17.02136668	     15.14117259	    -12.97244337	     -0.58229280	     -9.17162928	      6.10801433	      2.63500387	    -17.56986732	    -10.98641179	     -9.21919130	     28.79858347	     46.16484709	      0.00000000	      0.00000000	     39.84501090	    -22.06774531	     -8.45163891	     73.24774244	     47.85533234	      0.00000000	      0.00000000
     19.14457143	     -3.92672301	     -2.28430706	     -9.30055532	      1.01951670	      0.93048166	      0.43770746	     22.46804918	     -3.86358859	     -5.73772087	     18.08666215	     18.08666215	      7.49082469	      8.73304845	      1.02275057	      6.22764961	     -1.72765757	    -12.03486968	     16.07031268	     16.07031268	     15.17345851	    -12.43260069	     -1.16133676	     -9.15551683	      5.76405369	      2.92399174	    -17.24504953	    -10.78778447	     -9.07618342	     29.13547181	     46.14235818	      0.00000000	      0.00000000	     40.18323037	    -22.18070498	     -8.98884354	     74.18146338	     47.91122323	      0.00000000	      0.00000000
     19.16935714	     -4.07711530	     -1.85708797	     -9.74048747	      1.02024310	      0.92937252	      0.44288148	     22.43528855	     -3.70592772	     -5.54620550	     16.73133167	     16.73133167	      7.21775107	     10.03745453	      1.77867800	      5.71096475	     -1.53905254	    -12.54588926	     15.61563356	     15.61563356	     15.32049335	    -12.30001195	     -1.46805278	     -8.69215812	      5.28195498	      3.13026125	    -16.69053005	    -10.54144145	     -9.00046711	     29.44369147	     46.12789281	      0.00000000	      0.00000000	     40.55831851	    -22.29142823	     -9.30425664	     74.68311413	     47.94411198	      0.00000000	      0.00000000
     19.19414286	     -3.76070849	     -1.85527806	     -9.96785363	      1.02211569	      0.92958920	      0.44804350	     21.49473221	     -3.37920787	     -6.11545165	     15.59559585	     15.59559585	      7.13512836	     11.89417015	      2.77750651	      4.14770247	     -1.63599584	    -13.01835855	     14.35036828	     14.35036828	     15.21742111	    -11.51094685	     -2.18167782	     -8.77520665	      5.29698457	      3.18614960	    -16.21087899	    -10.54010756	     -8.89391907	     29.77528368	     46.11048895	      0.00000000	      0.00000000	     40.21743407	    -22.09697556	    -10.25719025	     75.82189966	     48.02604819	      0.00000000	      0.00000000
     19.21892857	     -3.77499268	     -1.82015009	    -10.09218957	      1.02387383	      0.92916099	      0.45333771	     21.31449253	     -3.04454371	     -6.12166222	     15.66217730	     15.66217730	      7.04955503	     12.30414454	      2.61167635	      3.22155789	     -1.80012412	    -13.27723285	     13.52878573	     13.52878573	     14.71880700	    -11.39612159	     -3.83446135	     -8.55419838	      5.34302689	      2.50344333	    -15.18010685	    -10.69974686	     -8.43286117	     30.06292782	     46.07706905	      0.00000000	      0.00000000	     39.07269881	    -22.07905724	    -12.80836823	     78.10132417	     48.22621937	      0.00000000	      0.00000000
     19.24371429	     -3.68911900	     -1.78195572	    -10.13605861	      1.02592863	      0.92908792	      0.45884385	     21.05952551	     -2.70678934	     -5.68734654	     16.16347850	     16.16347850	      6.88127722	     11.78203307	      1.59468770	      2.14544217	     -1.92607592	    -13.38345757	     12.69159459	     12.69159459	     14.77618784	    -11.01150740	     -3.81050176	     -8.37430986	      5.32924209	      2.51912732	    -14.55501326	    -10.75789156	     -8.17730518	     30.01277632	     46.06817795	      0.00000000	      0.00000000	     38.88278225	    -21.91027363	    -13.15305855	     78.50153121	     48.25286293	      0.00000000	      0.00000000
     19.26850000	     -3.67618906	     -1.97154965	     -9.93484344	      1.02822330	      0.92896853	      0.46436793	     20.55715600	     -2.13875681	     -5.42154604	     16.35633827	     16.35633827	      5.56991157	     10.58756299	     -3.02765705	      1.37011361	     -2.40307099	    -13.39815714	     12.35244696	     12.35244696	     15.03122227	    -10.61166986	     -3.62629215	     -8.17951068	      5.61408338	      1.98076610	    -13.51738429	    -11.04110227	     -7.37866555	     29.49699454	     46.05131613	      0.00000000	      0.00000000	     38.00216051	    -21.80041326	    -14.53820037	     79.70601153	     48.34866412	      0.00000000	      0.00000000
     19.29328571	     -3.62356669	     -2.19558253	     -9.66068840	      1.03050320	      0.92907787	      0.47000793	     20.12520324	     -1.56716673	     -5.08981185	     16.97590039	     16.97590039	      5.34474487	      9.21759675	     -4.77198762	      0.57249429	     -2.93219091	    -13.36442879	     12.03772020	     12.03772020	     15.35716219	    -10.09095044	     -3.07779688	     -8.07607837	      5.89058938	      1.87568754	    -13.04191761	    -11.25151792	     -7.09549322	     29.42870255	     46.04531513	      0.00000000	      0.00000000	     37.69217408	    -21.47480965	    -14.84518671	     80.05786796	     48.36410936	      0.00000000	      0.00000000
     19.31807143	     -3.67516200	     -2.46795633	     -9.26686052	      1.03274488	      0.92912871	      0.47557534	     19.73586084	     -1.06323367	     -5.34174132	     17.59280656	     17.59280656	      5.72360929	      8.80564691	     -5.09578041	     -0.00111241	     -3.55497781	    -13.11981970	     11.87659999	     11.87659999	     15.43859116	     -9.92765061	     -2.98003130	     -7.84164982	      6.21144546	      1.81684466	    -12.69944408	    -11.42697241	     -7.10820125	     29.52176778	     46.04595190	      0.00000000	      0.00000000	     37.42443772	    -21.08051569	    -14.72632963	     80.04777486	     48.35358176	      0.00000000	      0.00000000
     19.34285714	     -3.55937840	     -2.68981191	     -8.88812240	      1.03487326	      0.92942516	      0.48138214	     19.29939340	     -0.48138109	     -4.91194747	     18.37002303	     18.37002303	      6.03436448	      7.11378681	     -5.72445898	     -0.79964898	     -4.11923501	    -13.08930409	     11.60385298	     11.60385298	     15.62858443	     -9.38499089	     -2.45918437	     -7.90919618	      6.37699426	      1.80762363	    -12.39067612	    -11.66623692	     -7.12404006	     29.47290357	     46.05435434	      0.00000000	      0.00000000	     37.08045058	    -20.78023982	    -14.91019034	     80.25796465	     48.36459599	      0.00000000	      0.00000000
     19.36764286	     -3.60738857	     -3.08864912	     -8.36812196	      1.03675624	      0.92966148	      0.48717165	     18.68209363	      0.31745497	     -4.72360625	     18.44543649	     18.44543649	      6.11435644	      5.62493954	     -6.39314110	     -1.12232130	     -5.02452293	    -13.05535066	     11.90405799	     11.90405799	     16.16771034	     -8.65396091	     -1.49713125	     -7.80791906	      6.72947535	      1.54623295	    -11.93523818	    -11.85971863	     -7.14255981	     29.23207923	     46.07481632	      0.00000000	      0.00000000	     36.51139901	    -20.45958036	    -15.05597365	     80.53319163	     48.36996805	      0.00000000	      0.00000000
     19.39242857	     -3.65160768	     -3.28938415	     -7.84381837	      1.03834600	      0.92982329	      0.49276633	     18.22812909	      0.75761719	     -5.11835871	     18.70170351	     18.70170351	      6.59671684	      5.33352813	     -6.60237208	     -1.45790012	     -5.65791233	    -12.77195983	     11.98939285	     11.98939285	     16.07834100	     -8.50122786	     -1.35791487	     -7.71401014	      6.81007605	      1.46685345	    -11.68630245	    -12.02620941	     -7.16249928	     29.27043684	     46.07751897	      0.00000000	      0.00000000	     36.10800270	    -20.06454099	    -14.88547569	     80.44134491	     48.35372692	      0.00000000	      0.00000000
     19.41721429	     -3.65244943	     -3.58663785	     -7.29727194	      1.03966981	      0.93008323	      0.49830735	     17.68595928	      1.31993913	     -5.52181611	     18.79973980	     18.79973980	      7.03813233	      4.93062994	     -6.70851784	     -1.74203315	     -6.42156112	    -12.48278522	     12.23039707	     12.23039707	     16.05007008	     -8.34706969	     -1.17482587	     -7.72615237	      7.00821863	      1.41021477	    -11.37412879	    -12.20381820	     -7.18427413	     29.27694439	     46.08255695	      0.00000000	      0.00000000	     35.53759241	    -19.65689743	    -14.64556697	     80.28105118	     48.33043893	      0.00000000	      0.00000000
     19.44200000	     -3.73396729	     -3.98070656	     -6.75819671	      1.04066262	      0.93033778	      0.50398870	     16.98731498	      2.10916851	     -5.65382057	     18.33439013	     18.33439013	      7.34097908	      4.27544300	     -6.43530378	     -1.66635211	     -7.42492534	    -12.40970045	     12.99125915	     12.99125915	     16.34761268	     -7.83730657	     -0.62649363	     -7.69428349	      7.22989463	      1.28574878	    -10.86064007	    -12.32233503	     -7.21080207	     29.00326436	     46.10363266	      0.00000000	      0.00000000	     34.84785766	    -19.55023761	    -14.12887542	     79.99657945	     48.28476940	      0.00000000	      0.00000000
     19.46678571	     -3.77117631	     -4.11504169	     -6.26892102	      1.04147280	      0.93049214	      0.50936267	     16.55828564	      2.51896750	     -6.01390609	     18.34438103	     18.34438103	      7.79491841	      4.04716763	     -6.50704791	     -1.80175859	     -8.03144179	    -12.16807853	     13.29867393	     13.29867393	     16.25009579	     -7.65441155	     -0.45051167	     -7.67549523	      7.16217200	      1.32533742	    -10.44841387	    -12.38175784	     -7.21849807	     29.02860521	     46.10754442	      0.00000000	      0.00000000	     34.05266800	    -19.08562907	    -13.81930274	     79.71069081	     48.25325767	      0.00000000	      0.00000000
     19.49157143	     -3.79385031	     -4.27934652	     -5.76698949	      1.04213899	      0.93064172	      0.51459237	     16.05860261	      2.97135909	     -6.37410002	     18.19697278	     18.19697278	      8.17397189	      3.89140106	     -6.50524875	     -1.84065752	     -8.68742903	    -11.88468589	     13.78487461	     13.78487461	     16.17148147	     -7.52294385	     -0.30869317	     -7.63296905	      7.10901722	      1.37861732	     -9.92527961	    -12.41011300	     -7.22315914	     29.07704003	     46.11116533	      0.00000000	      0.00000000	     33.04865675	    -18.59995781	    -13.43652703	     79.28505267	     48.21308576	      0.00000000	      0.00000000
